<mxfile host="app.diagrams.net" agent="Mozilla/5.0 (Windows NT 10.0; Win64; x64) AppleWebKit/537.36 (KHTML, like Gecko) Chrome/136.0.0.0 Safari/537.36 Edg/136.0.0.0" version="26.2.14">
  <diagram name="Página-1" id="vWJFceu9CdGqWCG3f3b0">
    <mxGraphModel dx="864" dy="474" grid="1" gridSize="10" guides="1" tooltips="1" connect="1" arrows="1" fold="1" page="1" pageScale="1" pageWidth="827" pageHeight="1169" math="0" shadow="0">
      <root>
        <mxCell id="0" />
        <mxCell id="1" parent="0" />
        <mxCell id="wSL5QRvw3XPe1gi0qDN8-31" value="POSSUI" style="edgeStyle=orthogonalEdgeStyle;rounded=0;orthogonalLoop=1;jettySize=auto;html=1;" edge="1" parent="1" source="wSL5QRvw3XPe1gi0qDN8-1" target="wSL5QRvw3XPe1gi0qDN8-4">
          <mxGeometry relative="1" as="geometry" />
        </mxCell>
        <mxCell id="wSL5QRvw3XPe1gi0qDN8-1" value="USUARIO" style="shape=umlActor;verticalLabelPosition=bottom;verticalAlign=top;html=1;outlineConnect=0;" vertex="1" parent="1">
          <mxGeometry x="100" y="90" width="30" height="60" as="geometry" />
        </mxCell>
        <mxCell id="wSL5QRvw3XPe1gi0qDN8-30" value="POSSUI" style="edgeStyle=orthogonalEdgeStyle;rounded=0;orthogonalLoop=1;jettySize=auto;html=1;" edge="1" parent="1" source="wSL5QRvw3XPe1gi0qDN8-4" target="wSL5QRvw3XPe1gi0qDN8-11">
          <mxGeometry relative="1" as="geometry" />
        </mxCell>
        <mxCell id="wSL5QRvw3XPe1gi0qDN8-4" value="CONTA" style="rounded=1;whiteSpace=wrap;html=1;" vertex="1" parent="1">
          <mxGeometry x="220" y="110" width="80" height="50" as="geometry" />
        </mxCell>
        <mxCell id="wSL5QRvw3XPe1gi0qDN8-32" value="PUBLICA&lt;br&gt;E&lt;br&gt;VIZUALIZA" style="edgeStyle=orthogonalEdgeStyle;rounded=0;orthogonalLoop=1;jettySize=auto;html=1;" edge="1" parent="1" source="wSL5QRvw3XPe1gi0qDN8-11" target="wSL5QRvw3XPe1gi0qDN8-17">
          <mxGeometry relative="1" as="geometry" />
        </mxCell>
        <mxCell id="wSL5QRvw3XPe1gi0qDN8-11" value="PERFIL" style="rounded=1;whiteSpace=wrap;html=1;" vertex="1" parent="1">
          <mxGeometry x="344" y="80" width="70" height="40" as="geometry" />
        </mxCell>
        <mxCell id="wSL5QRvw3XPe1gi0qDN8-17" value="POSTS" style="rounded=1;whiteSpace=wrap;html=1;" vertex="1" parent="1">
          <mxGeometry x="500" y="80" width="70" height="40" as="geometry" />
        </mxCell>
        <mxCell id="wSL5QRvw3XPe1gi0qDN8-34" value="EDITA INFORMAÇÕES" style="curved=1;endArrow=classic;html=1;rounded=0;entryX=0.371;entryY=0;entryDx=0;entryDy=0;entryPerimeter=0;" edge="1" parent="1" target="wSL5QRvw3XPe1gi0qDN8-11">
          <mxGeometry width="50" height="50" relative="1" as="geometry">
            <mxPoint x="120" y="90" as="sourcePoint" />
            <mxPoint x="170" y="40" as="targetPoint" />
            <Array as="points">
              <mxPoint x="110" y="60" />
              <mxPoint x="240" y="50" />
            </Array>
          </mxGeometry>
        </mxCell>
        <mxCell id="wSL5QRvw3XPe1gi0qDN8-35" value="PODE&lt;br&gt;DELETAR" style="endArrow=none;dashed=1;html=1;dashPattern=1 3;strokeWidth=2;rounded=0;entryX=0.413;entryY=0.96;entryDx=0;entryDy=0;entryPerimeter=0;" edge="1" parent="1" source="wSL5QRvw3XPe1gi0qDN8-1" target="wSL5QRvw3XPe1gi0qDN8-4">
          <mxGeometry x="0.0341" y="-7" width="50" height="50" relative="1" as="geometry">
            <mxPoint x="110" y="189" as="sourcePoint" />
            <mxPoint x="270" y="180" as="targetPoint" />
            <Array as="points">
              <mxPoint x="180" y="190" />
            </Array>
            <mxPoint as="offset" />
          </mxGeometry>
        </mxCell>
        <mxCell id="wSL5QRvw3XPe1gi0qDN8-36" style="edgeStyle=orthogonalEdgeStyle;rounded=0;orthogonalLoop=1;jettySize=auto;html=1;exitX=0.25;exitY=1;exitDx=0;exitDy=0;entryX=0.5;entryY=1;entryDx=0;entryDy=0;" edge="1" parent="1" source="wSL5QRvw3XPe1gi0qDN8-4" target="wSL5QRvw3XPe1gi0qDN8-4">
          <mxGeometry relative="1" as="geometry" />
        </mxCell>
      </root>
    </mxGraphModel>
  </diagram>
</mxfile>
